<svg xmlns="http://www.w3.org/2000/svg" xmlns:xlink="http://www.w3.org/1999/xlink" width="500" zoomAndPan="magnify" viewBox="0 0 375 374.999991" height="500" preserveAspectRatio="xMidYMid meet" version="1.0"><defs><g/><clipPath id="865af071cd"><rect x="0" width="179" y="0" height="273"/></clipPath><clipPath id="e5432311d2"><rect x="0" width="155" y="0" height="252"/></clipPath><clipPath id="88f91028d1"><rect x="0" width="111" y="0" height="52"/></clipPath><clipPath id="e4b315e229"><rect x="0" width="141" y="0" height="53"/></clipPath></defs><g transform="matrix(1, 0, 0, 1, 35, 39)"><g clip-path="url(#865af071cd)"><g fill="#489fb4" fill-opacity="1"><g transform="translate(1.225613, 217.899166)"><g><path d="M 34.546875 -208.140625 L 7.828125 -208.140625 L 7.828125 -7.828125 L 40.21875 -7.828125 L 40.21875 -137.40625 C 40.21875 -137.769531 40.3125 -138.21875 40.5 -138.75 C 40.851562 -139.289062 41.210938 -139.648438 41.578125 -139.828125 C 41.929688 -140.015625 42.195312 -140.195312 42.375 -140.375 C 42.5625 -140.550781 42.742188 -140.640625 42.921875 -140.640625 L 44.546875 -140.640625 C 44.898438 -140.640625 45.347656 -140.460938 45.890625 -140.109375 C 46.429688 -139.921875 46.789062 -139.5625 46.96875 -139.03125 L 47.515625 -138.75 L 107.4375 -24.296875 L 111.765625 -17.546875 C 113.742188 -14.304688 116.082031 -11.875 118.78125 -10.25 C 121.476562 -8.632812 125.882812 -7.828125 132 -7.828125 L 145.5 -7.828125 C 148.019531 -7.828125 149.28125 -6.476562 149.28125 -3.78125 C 149.28125 -1.257812 148.019531 0 145.5 0 L 132 0 C 125.519531 0 120.164062 -1.03125 115.9375 -3.09375 C 111.707031 -5.164062 108.066406 -8.632812 105.015625 -13.5 L 100.6875 -19.96875 L 100.6875 -20.25 L 48.046875 -121.203125 L 48.046875 -3.78125 C 48.046875 -1.257812 46.695312 0 44 0 L 3.78125 0 C 2.695312 0 1.796875 -0.359375 1.078125 -1.078125 C 0.359375 -1.796875 0 -2.695312 0 -3.78125 L 0 -212.1875 C 0 -214.707031 1.257812 -215.96875 3.78125 -215.96875 L 34.546875 -215.96875 C 41.566406 -215.96875 46.921875 -214.523438 50.609375 -211.640625 C 54.304688 -208.765625 57.59375 -204.894531 60.46875 -200.03125 L 141.71875 -52.90625 L 141.71875 -208.140625 L 107.984375 -208.140625 L 107.984375 -162.78125 C 107.984375 -160.257812 106.722656 -159 104.203125 -159 C 101.503906 -159 100.15625 -160.257812 100.15625 -162.78125 L 100.15625 -212.1875 C 100.15625 -214.707031 101.503906 -215.96875 104.203125 -215.96875 L 145.5 -215.96875 C 148.019531 -215.96875 149.28125 -214.707031 149.28125 -212.1875 L 149.28125 -37.25 C 149.28125 -36.894531 149.101562 -36.445312 148.75 -35.90625 C 148.5625 -35.363281 148.203125 -35.003906 147.671875 -34.828125 C 147.484375 -34.640625 147.300781 -34.457031 147.125 -34.28125 C 146.945312 -34.101562 146.675781 -34.015625 146.3125 -34.015625 L 145.234375 -34.015625 C 144.691406 -34.015625 144.148438 -34.191406 143.609375 -34.546875 C 142.890625 -34.910156 142.441406 -35.273438 142.265625 -35.640625 L 142 -36.171875 L 53.71875 -196.25 C 51.382812 -200.570312 48.910156 -203.632812 46.296875 -205.4375 C 43.679688 -207.238281 39.765625 -208.140625 34.546875 -208.140625 Z M 34.546875 -208.140625 "/></g></g></g></g></g><g transform="matrix(1, 0, 0, 1, 194, 123)"><g clip-path="url(#e5432311d2)"><g fill="#fea62b" fill-opacity="1"><g transform="translate(3.40266, 217.981423)"><g><path d="M 61.015625 0 C 49.492188 0 40.085938 -1.929688 32.796875 -5.796875 C 25.503906 -9.671875 19.695312 -14.53125 15.375 -20.375 C 11.0625 -26.226562 7.78125 -32.300781 5.53125 -38.59375 C 3.28125 -44.894531 1.523438 -50.476562 0.265625 -55.34375 L 0 -56.15625 C -0.539062 -58.3125 0.265625 -59.835938 2.421875 -60.734375 L 34.828125 -73.703125 C 35.722656 -74.054688 36.800781 -73.960938 38.0625 -73.421875 C 39.144531 -73.066406 39.773438 -72.171875 39.953125 -70.734375 C 41.210938 -64.785156 42.875 -59.425781 44.9375 -54.65625 C 47.007812 -49.894531 50.566406 -46.703125 55.609375 -45.078125 C 61.191406 -43.460938 65.867188 -44.179688 69.640625 -47.234375 C 73.960938 -50.472656 76.125 -55.242188 76.125 -61.546875 C 76.125 -67.128906 74.773438 -71.3125 72.078125 -74.09375 C 69.378906 -76.882812 66.226562 -79.179688 62.625 -80.984375 C 60.46875 -82.066406 59.929688 -83.773438 61.015625 -86.109375 C 61.910156 -88.453125 63.617188 -89.082031 66.140625 -88 C 70.273438 -85.84375 74.273438 -82.828125 78.140625 -78.953125 C 82.015625 -75.085938 83.953125 -69.285156 83.953125 -61.546875 C 83.953125 -52.734375 80.710938 -45.894531 74.234375 -41.03125 C 68.472656 -36.53125 61.546875 -35.363281 53.453125 -37.53125 C 46.796875 -39.507812 42.070312 -43.285156 39.28125 -48.859375 C 36.488281 -54.441406 34.460938 -59.660156 33.203125 -64.515625 L 8.640625 -54.53125 C 9.898438 -50.03125 11.609375 -45.078125 13.765625 -39.671875 C 15.921875 -34.273438 18.84375 -29.144531 22.53125 -24.28125 C 26.226562 -19.425781 31.179688 -15.46875 37.390625 -12.40625 C 43.597656 -9.351562 51.472656 -7.828125 61.015625 -7.828125 C 72.171875 -7.828125 81.707031 -9.71875 89.625 -13.5 C 97.539062 -17.28125 103.882812 -23.488281 108.65625 -32.125 C 113.425781 -40.757812 115.628906 -50.117188 115.265625 -60.203125 C 114.910156 -69.378906 112.523438 -77.382812 108.109375 -84.21875 C 103.703125 -91.0625 97.722656 -95.921875 90.171875 -98.796875 C 86.203125 -100.421875 82.054688 -101.816406 77.734375 -102.984375 C 73.421875 -104.148438 69.015625 -105.273438 64.515625 -106.359375 C 56.054688 -108.160156 47.773438 -110.363281 39.671875 -112.96875 C 31.578125 -115.582031 24.5625 -119.722656 18.625 -125.390625 C 12.6875 -131.054688 8.726562 -139.289062 6.75 -150.09375 C 4.769531 -160.707031 5.265625 -169.75 8.234375 -177.21875 C 11.203125 -184.6875 14.394531 -190.582031 17.8125 -194.90625 C 23.394531 -201.5625 30.234375 -206.734375 38.328125 -210.421875 C 46.429688 -214.117188 54.890625 -215.96875 63.703125 -215.96875 C 77.742188 -215.96875 89.625 -211.78125 99.34375 -203.40625 C 109.0625 -195.039062 116.082031 -183.03125 120.40625 -167.375 C 120.9375 -165.394531 120.210938 -163.863281 118.234375 -162.78125 L 88 -148.46875 C 86.925781 -148.113281 85.847656 -148.113281 84.765625 -148.46875 C 83.679688 -149.007812 82.960938 -149.910156 82.609375 -151.171875 C 81.890625 -154.953125 80.628906 -158.773438 78.828125 -162.640625 C 77.023438 -166.515625 74.234375 -169.257812 70.453125 -170.875 C 67.035156 -172.320312 63.707031 -172.320312 60.46875 -170.875 C 57.226562 -169.4375 54.707031 -167.007812 52.90625 -163.59375 C 50.925781 -159.445312 50.519531 -155.347656 51.6875 -151.296875 C 52.863281 -147.253906 55.429688 -143.796875 59.390625 -140.921875 C 61.546875 -139.296875 61.90625 -137.492188 60.46875 -135.515625 C 59.75 -134.796875 58.847656 -134.34375 57.765625 -134.15625 C 56.691406 -133.976562 55.703125 -134.160156 54.796875 -134.703125 C 49.222656 -138.660156 45.625 -143.609375 44 -149.546875 C 42.382812 -155.492188 43.015625 -161.253906 45.890625 -166.828125 C 48.410156 -172.222656 52.320312 -175.957031 57.625 -178.03125 C 62.9375 -180.101562 68.203125 -180.0625 73.421875 -177.90625 C 77.921875 -176.101562 81.335938 -173.3125 83.671875 -169.53125 C 86.015625 -165.75 87.816406 -161.789062 89.078125 -157.65625 L 112.03125 -168.453125 C 110.050781 -174.753906 107.171875 -180.960938 103.390625 -187.078125 C 99.609375 -193.191406 94.523438 -198.226562 88.140625 -202.1875 C 81.753906 -206.15625 73.609375 -208.140625 63.703125 -208.140625 C 55.960938 -208.140625 48.582031 -206.5625 41.5625 -203.40625 C 34.550781 -200.257812 28.707031 -195.804688 24.03125 -190.046875 C 20.96875 -186.441406 18.175781 -181.445312 15.65625 -175.0625 C 13.132812 -168.675781 12.773438 -160.894531 14.578125 -151.71875 C 16.191406 -142.539062 19.5625 -135.566406 24.6875 -130.796875 C 29.820312 -126.023438 36.035156 -122.46875 43.328125 -120.125 C 50.617188 -117.789062 58.3125 -115.722656 66.40625 -113.921875 C 70.90625 -112.835938 75.445312 -111.710938 80.03125 -110.546875 C 84.625 -109.378906 89.082031 -107.984375 93.40625 -106.359375 C 102.21875 -102.765625 109.28125 -96.914062 114.59375 -88.8125 C 119.90625 -80.71875 122.738281 -71.269531 123.09375 -60.46875 C 123.457031 -48.769531 120.894531 -37.925781 115.40625 -27.9375 C 109.914062 -17.945312 102.492188 -10.703125 93.140625 -6.203125 C 87.554688 -3.503906 81.660156 -1.796875 75.453125 -1.078125 C 69.242188 -0.359375 64.429688 0 61.015625 0 Z M 61.015625 0 "/></g></g></g></g></g><g transform="matrix(1, 0, 0, 1, 202, 35)"><g clip-path="url(#88f91028d1)"><g fill="#fea62b" fill-opacity="1"><g transform="translate(1.794019, 36.854943)"><g><path d="M 5.34375 0.15625 C 4.195312 0.0507812 2.863281 0 1.34375 0 L -0.21875 0 L 8.40625 -24.1875 C 8.789062 -25.269531 8.984375 -25.898438 8.984375 -26.078125 C 8.984375 -26.265625 8.976562 -26.375 8.96875 -26.40625 L 8.984375 -26.453125 C 9.847656 -26.410156 10.765625 -26.390625 11.734375 -26.390625 C 12.523438 -26.390625 13.472656 -26.40625 14.578125 -26.4375 L 14.609375 -26.390625 C 14.578125 -26.335938 14.5625 -26.265625 14.5625 -26.171875 C 14.5625 -25.921875 14.757812 -25.253906 15.15625 -24.171875 L 23.96875 0.0625 C 23.707031 0.0507812 23.394531 0.046875 23.03125 0.046875 C 23.03125 0.046875 22.6875 0.03125 22 0 C 21.675781 0 21.378906 0 21.109375 0 L 18.03125 0 L 16.171875 -5.71875 L 7.203125 -5.71875 Z M 14.625 -10.484375 L 11.625 -19.703125 L 8.71875 -10.484375 Z M 14.625 -10.484375 "/></g></g></g><g fill="#fea62b" fill-opacity="1"><g transform="translate(25.549474, 36.854943)"><g><path d="M 11.953125 -10.265625 C 11.546875 -10.234375 11.117188 -10.21875 10.671875 -10.21875 C 10.222656 -10.21875 9.554688 -10.25 8.671875 -10.3125 L 8.671875 0 L 3.40625 0 L 3.40625 -26.53125 C 5.257812 -26.769531 7.535156 -26.890625 10.234375 -26.890625 C 13.910156 -26.890625 16.648438 -26.210938 18.453125 -24.859375 C 20.265625 -23.503906 21.171875 -21.410156 21.171875 -18.578125 C 21.171875 -16.378906 20.34375 -14.5 18.6875 -12.9375 C 18.144531 -12.4375 17.523438 -12 16.828125 -11.625 L 20.875 -3.09375 C 21.664062 -1.332031 22.273438 -0.285156 22.703125 0.046875 L 22.609375 0.140625 C 21.316406 -0.0664062 19.296875 -0.0625 16.546875 0.15625 Z M 10.609375 -22.203125 C 9.941406 -22.203125 9.296875 -22.171875 8.671875 -22.109375 L 8.671875 -14.53125 C 9.316406 -14.4375 10.078125 -14.390625 10.953125 -14.390625 C 11.828125 -14.390625 12.5625 -14.460938 13.15625 -14.609375 C 13.75 -14.765625 14.265625 -15 14.703125 -15.3125 C 15.640625 -16.019531 16.109375 -17.070312 16.109375 -18.46875 C 16.109375 -19.875 15.617188 -20.863281 14.640625 -21.4375 C 13.734375 -21.945312 12.390625 -22.203125 10.609375 -22.203125 Z M 10.609375 -22.203125 "/></g></g></g><g fill="#fea62b" fill-opacity="1"><g transform="translate(49.225546, 36.854943)"><g><path d="M 12.9375 0.125 C 12.300781 0.0390625 10.664062 0 8.03125 0 L 7.40625 0 L 7.40625 -21.953125 L 3.46875 -21.953125 C 2.300781 -21.953125 1.613281 -21.890625 1.40625 -21.765625 C 1.195312 -21.648438 1.03125 -21.546875 0.90625 -21.453125 L 0.859375 -21.46875 L 0.859375 -26.546875 L 0.90625 -26.609375 C 1.34375 -26.460938 2.519531 -26.390625 4.4375 -26.390625 L 16.890625 -26.390625 C 18.054688 -26.390625 18.742188 -26.445312 18.953125 -26.5625 C 19.160156 -26.6875 19.328125 -26.796875 19.453125 -26.890625 L 19.5 -26.875 L 19.5 -21.78125 L 19.453125 -21.734375 C 19.015625 -21.878906 17.835938 -21.953125 15.921875 -21.953125 L 12.9375 -21.953125 Z M 12.9375 0.125 "/></g></g></g><g fill="#fea62b" fill-opacity="1"><g transform="translate(69.587357, 36.854943)"><g/></g></g><g fill="#fea62b" fill-opacity="1"><g transform="translate(83.062678, 36.854943)"><g><path d="M 6.96875 -9.921875 C 5.957031 -9.921875 5.132812 -9.890625 4.5 -9.828125 L 4.5625 -14.71875 C 4.851562 -14.644531 5.726562 -14.609375 7.1875 -14.609375 L 11.1875 -14.609375 L 11.1875 -18.421875 C 11.1875 -19.867188 11.148438 -20.738281 11.078125 -21.03125 L 15.96875 -21.09375 C 15.90625 -20.457031 15.875 -19.640625 15.875 -18.640625 L 15.875 -14.609375 L 19.859375 -14.609375 C 21.304688 -14.609375 22.179688 -14.644531 22.484375 -14.71875 L 22.546875 -9.828125 C 21.910156 -9.890625 21.085938 -9.921875 20.078125 -9.921875 L 15.875 -9.921875 L 15.875 -5.515625 C 15.875 -4.515625 15.90625 -3.695312 15.96875 -3.0625 L 11.078125 -3.109375 C 11.148438 -3.421875 11.1875 -4.296875 11.1875 -5.734375 L 11.1875 -9.921875 Z M 6.96875 -9.921875 "/></g></g></g></g></g><g transform="matrix(1, 0, 0, 1, 203, 73)"><g clip-path="url(#e4b315e229)"><g fill="#489fb4" fill-opacity="1"><g transform="translate(1.201592, 37.658556)"><g><path d="M 9.84375 0.5 C 7.695312 0.5 5.679688 0.328125 3.796875 -0.015625 L 3.796875 -26.578125 C 5.535156 -26.785156 7.554688 -26.890625 9.859375 -26.890625 C 12.171875 -26.890625 14.265625 -26.570312 16.140625 -25.9375 C 18.015625 -25.3125 19.582031 -24.414062 20.84375 -23.25 C 23.375 -20.925781 24.640625 -17.664062 24.640625 -13.46875 C 24.640625 -8.769531 23.226562 -5.207031 20.40625 -2.78125 C 17.863281 -0.59375 14.34375 0.5 9.84375 0.5 Z M 8.953125 -4.34375 C 9.804688 -4.1875 10.660156 -4.109375 11.515625 -4.109375 C 12.378906 -4.109375 13.304688 -4.273438 14.296875 -4.609375 C 15.296875 -4.953125 16.160156 -5.476562 16.890625 -6.1875 C 18.453125 -7.695312 19.234375 -9.894531 19.234375 -12.78125 C 19.234375 -17.519531 17.503906 -20.429688 14.046875 -21.515625 C 12.910156 -21.867188 11.59375 -22.046875 10.09375 -22.046875 L 9.5625 -22.046875 C 9.363281 -22.046875 9.160156 -22.039062 8.953125 -22.03125 Z M 8.953125 -4.34375 "/></g></g></g><g fill="#489fb4" fill-opacity="1"><g transform="translate(28.27129, 37.658556)"><g><path d="M 16.6875 -4.765625 C 17.507812 -4.765625 18.078125 -4.84375 18.390625 -5 L 18.46875 -4.984375 L 18.28125 0 L 3.40625 0 L 3.40625 -26.53125 C 3.769531 -26.5 4.171875 -26.476562 4.609375 -26.46875 L 6 -26.4375 C 6.914062 -26.40625 7.921875 -26.390625 9.015625 -26.390625 C 12.035156 -26.390625 15.03125 -26.441406 18 -26.546875 C 17.851562 -25.390625 17.78125 -23.835938 17.78125 -21.890625 C 17.78125 -21.679688 17.789062 -21.519531 17.8125 -21.40625 L 17.78125 -21.359375 C 17.09375 -21.554688 16.113281 -21.65625 14.84375 -21.65625 L 8.59375 -21.65625 L 8.59375 -16.59375 L 13.296875 -16.59375 C 14.753906 -16.59375 15.628906 -16.628906 15.921875 -16.703125 L 15.96875 -11.8125 C 15.332031 -11.875 14.515625 -11.90625 13.515625 -11.90625 L 8.59375 -11.90625 L 8.59375 -4.765625 Z M 16.6875 -4.765625 "/></g></g></g><g fill="#489fb4" fill-opacity="1"><g transform="translate(48.633101, 37.658556)"><g><path d="M 19.34375 -24.921875 L 18.96875 -19.09375 L 18.828125 -19.046875 C 17.847656 -20.515625 16.179688 -21.46875 13.828125 -21.90625 C 13.085938 -22.050781 12.375 -22.125 11.6875 -22.125 C 11.007812 -22.125 10.429688 -22.0625 9.953125 -21.9375 C 9.472656 -21.820312 9.0625 -21.65625 8.71875 -21.4375 C 7.988281 -20.957031 7.625 -20.332031 7.625 -19.5625 C 7.625 -18.5625 7.941406 -17.804688 8.578125 -17.296875 C 9.367188 -16.691406 10.679688 -16.265625 12.515625 -16.015625 C 14.359375 -15.773438 15.832031 -15.441406 16.9375 -15.015625 C 18.050781 -14.597656 18.96875 -14.066406 19.6875 -13.421875 C 21.03125 -12.203125 21.703125 -10.476562 21.703125 -8.25 C 21.703125 -5.34375 20.609375 -3.101562 18.421875 -1.53125 C 16.535156 -0.175781 14.164062 0.5 11.3125 0.5 C 9.007812 0.5 6.734375 0.0625 4.484375 -0.8125 C 3.742188 -1.101562 3.097656 -1.441406 2.546875 -1.828125 L 2.765625 -8.453125 L 2.84375 -8.515625 C 4.476562 -5.679688 7.171875 -4.265625 10.921875 -4.265625 C 13.578125 -4.265625 15.332031 -4.90625 16.1875 -6.1875 C 16.476562 -6.625 16.625 -7.109375 16.625 -7.640625 C 16.625 -8.179688 16.535156 -8.625 16.359375 -8.96875 C 16.191406 -9.320312 15.910156 -9.625 15.515625 -9.875 C 14.742188 -10.382812 13.453125 -10.722656 11.640625 -10.890625 C 9.835938 -11.066406 8.359375 -11.390625 7.203125 -11.859375 C 6.054688 -12.335938 5.132812 -12.929688 4.4375 -13.640625 C 3.195312 -14.898438 2.578125 -16.671875 2.578125 -18.953125 C 2.578125 -21.304688 3.40625 -23.210938 5.0625 -24.671875 C 6.738281 -26.148438 9.003906 -26.890625 11.859375 -26.890625 C 14.710938 -26.890625 17.207031 -26.234375 19.34375 -24.921875 Z M 19.34375 -24.921875 "/></g></g></g><g fill="#489fb4" fill-opacity="1"><g transform="translate(72.309173, 37.658556)"><g><path d="M 4.03125 -26.46875 C 5.351562 -26.414062 6.148438 -26.390625 6.421875 -26.390625 L 7.859375 -26.390625 C 8.554688 -26.390625 9.117188 -26.441406 9.546875 -26.546875 L 9.53125 0 L 4.03125 0 Z M 4.03125 -26.46875 "/></g></g></g><g fill="#489fb4" fill-opacity="1"><g transform="translate(85.883713, 37.658556)"><g><path d="M 25.15625 -15.921875 C 24.90625 -15.460938 24.78125 -14.382812 24.78125 -12.6875 L 24.78125 -6.53125 C 24.78125 -4.664062 23.816406 -3.046875 21.890625 -1.671875 C 19.890625 -0.222656 17.441406 0.5 14.546875 0.5 C 10.523438 0.5 7.316406 -0.765625 4.921875 -3.296875 C 2.609375 -5.703125 1.453125 -8.769531 1.453125 -12.5 C 1.453125 -16.46875 2.628906 -19.773438 4.984375 -22.421875 C 7.617188 -25.398438 11.242188 -26.890625 15.859375 -26.890625 C 18.941406 -26.890625 21.378906 -26.296875 23.171875 -25.109375 L 22.859375 -19.25 L 22.703125 -19.203125 C 22.234375 -20.015625 21.320312 -20.675781 19.96875 -21.1875 C 18.664062 -21.675781 17.300781 -21.921875 15.875 -21.921875 C 14.457031 -21.921875 13.21875 -21.695312 12.15625 -21.25 C 11.09375 -20.800781 10.191406 -20.160156 9.453125 -19.328125 C 7.890625 -17.617188 7.109375 -15.363281 7.109375 -12.5625 C 7.109375 -10.113281 7.796875 -8.148438 9.171875 -6.671875 C 10.546875 -5.203125 12.316406 -4.46875 14.484375 -4.46875 C 16.878906 -4.46875 18.492188 -5.085938 19.328125 -6.328125 C 19.585938 -6.722656 19.71875 -7.171875 19.71875 -7.671875 L 19.71875 -10.96875 L 17.171875 -10.96875 C 15.785156 -10.96875 15.035156 -10.847656 14.921875 -10.609375 L 14.859375 -10.640625 L 14.6875 -15.8125 C 15.050781 -15.707031 16.550781 -15.65625 19.1875 -15.65625 L 21.53125 -15.65625 C 22.988281 -15.65625 24.179688 -15.753906 25.109375 -15.953125 Z M 25.15625 -15.921875 "/></g></g></g><g fill="#489fb4" fill-opacity="1"><g transform="translate(112.953411, 37.658556)"><g><path d="M 3.59375 0 C 3.664062 -0.445312 3.703125 -0.9375 3.703125 -1.46875 L 3.703125 -26.390625 L 7.671875 -26.390625 L 18.203125 -9.84375 L 18.203125 -25.046875 C 18.203125 -25.773438 18.132812 -26.222656 18 -26.390625 L 23.359375 -26.390625 C 23.285156 -25.859375 23.25 -25.273438 23.25 -24.640625 L 23.25 0 L 19.125 0 L 8.765625 -15.890625 L 8.765625 0 Z M 3.59375 0 "/></g></g></g></g></g><path fill="#489fb4" d="M 17.808594 4.488281 L 74.058594 4.488281 C 74.425781 4.488281 74.792969 4.523438 75.15625 4.597656 C 75.515625 4.667969 75.867188 4.773438 76.210938 4.914062 C 76.550781 5.058594 76.875 5.230469 77.183594 5.4375 C 77.488281 5.640625 77.773438 5.875 78.035156 6.136719 C 78.296875 6.398438 78.53125 6.679688 78.734375 6.988281 C 78.941406 7.292969 79.113281 7.617188 79.253906 7.960938 C 79.394531 8.300781 79.503906 8.652344 79.574219 9.015625 C 79.648438 9.378906 79.683594 9.742188 79.683594 10.113281 C 79.683594 10.480469 79.648438 10.847656 79.574219 11.210938 C 79.503906 11.574219 79.394531 11.925781 79.253906 12.265625 C 79.113281 12.605469 78.941406 12.929688 78.734375 13.238281 C 78.53125 13.546875 78.296875 13.828125 78.035156 14.089844 C 77.773438 14.351562 77.488281 14.585938 77.183594 14.789062 C 76.875 14.996094 76.550781 15.167969 76.210938 15.308594 C 75.867188 15.449219 75.515625 15.558594 75.15625 15.628906 C 74.792969 15.703125 74.425781 15.738281 74.058594 15.738281 L 17.808594 15.738281 C 17.4375 15.738281 17.074219 15.703125 16.710938 15.628906 C 16.347656 15.558594 15.996094 15.449219 15.65625 15.308594 C 15.3125 15.167969 14.988281 14.996094 14.683594 14.789062 C 14.375 14.585938 14.089844 14.351562 13.832031 14.089844 C 13.570312 13.828125 13.335938 13.546875 13.128906 13.238281 C 12.925781 12.929688 12.753906 12.605469 12.609375 12.265625 C 12.46875 11.925781 12.363281 11.574219 12.289062 11.210938 C 12.21875 10.847656 12.183594 10.480469 12.183594 10.113281 C 12.183594 9.742188 12.21875 9.378906 12.289062 9.015625 C 12.363281 8.652344 12.46875 8.300781 12.609375 7.960938 C 12.753906 7.617188 12.925781 7.292969 13.128906 6.988281 C 13.335938 6.679688 13.570312 6.398438 13.832031 6.136719 C 14.089844 5.875 14.375 5.640625 14.683594 5.4375 C 14.988281 5.230469 15.3125 5.058594 15.65625 4.914062 C 15.996094 4.773438 16.347656 4.667969 16.710938 4.597656 C 17.074219 4.523438 17.4375 4.488281 17.808594 4.488281 Z M 96.558594 4.488281 L 103.527344 4.488281 C 103.894531 4.488281 104.261719 4.523438 104.621094 4.597656 C 104.984375 4.667969 105.335938 4.773438 105.679688 4.914062 C 106.019531 5.058594 106.34375 5.230469 106.652344 5.4375 C 106.957031 5.640625 107.242188 5.875 107.503906 6.136719 C 107.765625 6.398438 107.996094 6.679688 108.203125 6.988281 C 108.40625 7.292969 108.582031 7.617188 108.722656 7.960938 C 108.863281 8.300781 108.96875 8.652344 109.042969 9.015625 C 109.113281 9.378906 109.152344 9.742188 109.152344 10.113281 C 109.152344 10.480469 109.113281 10.847656 109.042969 11.210938 C 108.96875 11.574219 108.863281 11.925781 108.722656 12.265625 C 108.582031 12.605469 108.40625 12.929688 108.203125 13.238281 C 107.996094 13.546875 107.765625 13.828125 107.503906 14.089844 C 107.242188 14.351562 106.957031 14.585938 106.652344 14.789062 C 106.34375 14.996094 106.019531 15.167969 105.679688 15.308594 C 105.335938 15.449219 104.984375 15.558594 104.621094 15.628906 C 104.261719 15.703125 103.894531 15.738281 103.527344 15.738281 L 96.558594 15.738281 C 96.1875 15.738281 95.824219 15.703125 95.460938 15.628906 C 95.097656 15.558594 94.746094 15.449219 94.40625 15.308594 C 94.0625 15.167969 93.738281 14.996094 93.433594 14.789062 C 93.125 14.585938 92.839844 14.351562 92.582031 14.089844 C 92.320312 13.828125 92.085938 13.546875 91.878906 13.238281 C 91.675781 12.929688 91.503906 12.605469 91.359375 12.265625 C 91.21875 11.925781 91.113281 11.574219 91.039062 11.210938 C 90.96875 10.847656 90.933594 10.480469 90.933594 10.113281 C 90.933594 9.742188 90.96875 9.378906 91.039062 9.015625 C 91.113281 8.652344 91.21875 8.300781 91.359375 7.960938 C 91.503906 7.617188 91.675781 7.292969 91.878906 6.988281 C 92.085938 6.679688 92.320312 6.398438 92.582031 6.136719 C 92.839844 5.875 93.125 5.640625 93.433594 5.4375 C 93.738281 5.230469 94.0625 5.058594 94.40625 4.914062 C 94.746094 4.773438 95.097656 4.667969 95.460938 4.597656 C 95.824219 4.523438 96.1875 4.488281 96.558594 4.488281 Z M 96.558594 4.488281 " fill-opacity="1" fill-rule="nonzero"/><path fill="#fea62b" d="M 352.324219 372.195312 L 296.074219 372.195312 C 295.707031 372.195312 295.339844 372.15625 294.976562 372.085938 C 294.613281 372.011719 294.261719 371.90625 293.921875 371.765625 C 293.582031 371.625 293.257812 371.449219 292.949219 371.246094 C 292.644531 371.039062 292.359375 370.808594 292.097656 370.546875 C 291.835938 370.285156 291.601562 370 291.398438 369.695312 C 291.191406 369.386719 291.019531 369.0625 290.878906 368.722656 C 290.738281 368.378906 290.628906 368.027344 290.558594 367.664062 C 290.484375 367.304688 290.449219 366.9375 290.449219 366.570312 C 290.449219 366.199219 290.484375 365.832031 290.558594 365.472656 C 290.628906 365.109375 290.738281 364.757812 290.878906 364.414062 C 291.019531 364.074219 291.191406 363.75 291.398438 363.441406 C 291.601562 363.136719 291.835938 362.851562 292.097656 362.589844 C 292.359375 362.328125 292.644531 362.097656 292.949219 361.890625 C 293.257812 361.6875 293.582031 361.511719 293.921875 361.371094 C 294.261719 361.230469 294.613281 361.125 294.976562 361.050781 C 295.339844 360.980469 295.707031 360.945312 296.074219 360.945312 L 352.324219 360.945312 C 352.695312 360.945312 353.058594 360.980469 353.421875 361.050781 C 353.785156 361.125 354.136719 361.230469 354.476562 361.371094 C 354.820312 361.511719 355.144531 361.6875 355.449219 361.890625 C 355.757812 362.097656 356.042969 362.328125 356.300781 362.589844 C 356.5625 362.851562 356.796875 363.136719 357 363.441406 C 357.207031 363.75 357.378906 364.074219 357.523438 364.414062 C 357.664062 364.757812 357.769531 365.109375 357.839844 365.472656 C 357.914062 365.832031 357.949219 366.199219 357.949219 366.570312 C 357.949219 366.9375 357.914062 367.304688 357.839844 367.664062 C 357.769531 368.027344 357.664062 368.378906 357.523438 368.722656 C 357.378906 369.0625 357.207031 369.386719 357 369.695312 C 356.796875 370 356.5625 370.285156 356.300781 370.546875 C 356.042969 370.808594 355.757812 371.039062 355.449219 371.246094 C 355.144531 371.449219 354.820312 371.625 354.476562 371.765625 C 354.136719 371.90625 353.785156 372.011719 353.421875 372.085938 C 353.058594 372.15625 352.695312 372.195312 352.324219 372.195312 Z M 273.574219 372.195312 L 266.605469 372.195312 C 266.238281 372.195312 265.871094 372.15625 265.507812 372.085938 C 265.148438 372.011719 264.796875 371.90625 264.453125 371.765625 C 264.113281 371.625 263.789062 371.449219 263.480469 371.246094 C 263.175781 371.039062 262.890625 370.808594 262.628906 370.546875 C 262.367188 370.285156 262.136719 370 261.929688 369.695312 C 261.726562 369.386719 261.550781 369.0625 261.410156 368.722656 C 261.269531 368.378906 261.160156 368.027344 261.089844 367.664062 C 261.019531 367.304688 260.980469 366.9375 260.980469 366.570312 C 260.980469 366.199219 261.019531 365.832031 261.089844 365.472656 C 261.160156 365.109375 261.269531 364.757812 261.410156 364.414062 C 261.550781 364.074219 261.726562 363.75 261.929688 363.441406 C 262.136719 363.136719 262.367188 362.851562 262.628906 362.589844 C 262.890625 362.328125 263.175781 362.097656 263.480469 361.890625 C 263.789062 361.6875 264.113281 361.511719 264.453125 361.371094 C 264.796875 361.230469 265.148438 361.125 265.507812 361.050781 C 265.871094 360.980469 266.238281 360.945312 266.605469 360.945312 L 273.574219 360.945312 C 273.945312 360.945312 274.308594 360.980469 274.671875 361.050781 C 275.035156 361.125 275.386719 361.230469 275.726562 361.371094 C 276.070312 361.511719 276.394531 361.6875 276.699219 361.890625 C 277.007812 362.097656 277.292969 362.328125 277.550781 362.589844 C 277.8125 362.851562 278.046875 363.136719 278.25 363.441406 C 278.457031 363.75 278.628906 364.074219 278.773438 364.414062 C 278.914062 364.757812 279.019531 365.109375 279.089844 365.472656 C 279.164062 365.832031 279.199219 366.199219 279.199219 366.570312 C 279.199219 366.9375 279.164062 367.304688 279.089844 367.664062 C 279.019531 368.027344 278.914062 368.378906 278.773438 368.722656 C 278.628906 369.0625 278.457031 369.386719 278.25 369.695312 C 278.046875 370 277.8125 370.285156 277.550781 370.546875 C 277.292969 370.808594 277.007812 371.039062 276.699219 371.246094 C 276.394531 371.449219 276.070312 371.625 275.726562 371.765625 C 275.386719 371.90625 275.035156 372.011719 274.671875 372.085938 C 274.308594 372.15625 273.945312 372.195312 273.574219 372.195312 Z M 273.574219 372.195312 " fill-opacity="1" fill-rule="nonzero"/><path fill="#fea62b" d="M 346.839844 364.15625 L 346.839844 307.90625 C 346.839844 307.535156 346.875 307.171875 346.949219 306.808594 C 347.019531 306.445312 347.128906 306.09375 347.269531 305.753906 C 347.410156 305.414062 347.582031 305.089844 347.789062 304.78125 C 347.992188 304.472656 348.226562 304.191406 348.488281 303.929688 C 348.75 303.667969 349.035156 303.433594 349.339844 303.230469 C 349.648438 303.023438 349.972656 302.851562 350.3125 302.710938 C 350.652344 302.566406 351.003906 302.460938 351.367188 302.390625 C 351.730469 302.316406 352.097656 302.28125 352.464844 302.28125 C 352.835938 302.28125 353.199219 302.316406 353.5625 302.390625 C 353.925781 302.460938 354.277344 302.566406 354.617188 302.710938 C 354.960938 302.851562 355.285156 303.023438 355.589844 303.230469 C 355.898438 303.433594 356.183594 303.667969 356.441406 303.929688 C 356.703125 304.191406 356.9375 304.472656 357.140625 304.78125 C 357.347656 305.089844 357.519531 305.414062 357.664062 305.753906 C 357.804688 306.09375 357.910156 306.445312 357.980469 306.808594 C 358.054688 307.171875 358.089844 307.535156 358.089844 307.90625 L 358.089844 364.15625 C 358.089844 364.527344 358.054688 364.890625 357.980469 365.253906 C 357.910156 365.617188 357.804688 365.96875 357.664062 366.308594 C 357.519531 366.648438 357.347656 366.972656 357.140625 367.28125 C 356.9375 367.589844 356.703125 367.871094 356.441406 368.132812 C 356.183594 368.394531 355.898438 368.628906 355.589844 368.832031 C 355.285156 369.039062 354.960938 369.210938 354.617188 369.351562 C 354.277344 369.496094 353.925781 369.601562 353.5625 369.671875 C 353.199219 369.746094 352.835938 369.78125 352.464844 369.78125 C 352.097656 369.78125 351.730469 369.746094 351.367188 369.671875 C 351.003906 369.601562 350.652344 369.496094 350.3125 369.351562 C 349.972656 369.210938 349.648438 369.039062 349.339844 368.832031 C 349.035156 368.628906 348.75 368.394531 348.488281 368.132812 C 348.226562 367.871094 347.992188 367.589844 347.789062 367.28125 C 347.582031 366.972656 347.410156 366.648438 347.269531 366.308594 C 347.128906 365.96875 347.019531 365.617188 346.949219 365.253906 C 346.875 364.890625 346.839844 364.527344 346.839844 364.15625 Z M 346.839844 285.40625 L 346.839844 278.4375 C 346.839844 278.070312 346.875 277.703125 346.949219 277.339844 C 347.019531 276.980469 347.128906 276.628906 347.269531 276.285156 C 347.410156 275.945312 347.582031 275.621094 347.789062 275.3125 C 347.992188 275.007812 348.226562 274.722656 348.488281 274.460938 C 348.75 274.199219 349.035156 273.964844 349.339844 273.761719 C 349.648438 273.554688 349.972656 273.382812 350.3125 273.242188 C 350.652344 273.101562 351.003906 272.992188 351.367188 272.921875 C 351.730469 272.847656 352.097656 272.8125 352.464844 272.8125 C 352.835938 272.8125 353.199219 272.847656 353.5625 272.921875 C 353.925781 272.992188 354.277344 273.101562 354.617188 273.242188 C 354.960938 273.382812 355.285156 273.554688 355.589844 273.761719 C 355.898438 273.964844 356.183594 274.199219 356.441406 274.460938 C 356.703125 274.722656 356.9375 275.007812 357.140625 275.3125 C 357.347656 275.621094 357.519531 275.945312 357.664062 276.285156 C 357.804688 276.628906 357.910156 276.980469 357.980469 277.339844 C 358.054688 277.703125 358.089844 278.070312 358.089844 278.4375 L 358.089844 285.40625 C 358.089844 285.777344 358.054688 286.140625 357.980469 286.503906 C 357.910156 286.867188 357.804688 287.21875 357.664062 287.558594 C 357.519531 287.898438 357.347656 288.222656 357.140625 288.53125 C 356.9375 288.839844 356.703125 289.121094 356.441406 289.382812 C 356.183594 289.644531 355.898438 289.878906 355.589844 290.082031 C 355.285156 290.289062 354.960938 290.460938 354.617188 290.601562 C 354.277344 290.746094 353.925781 290.851562 353.5625 290.921875 C 353.199219 290.996094 352.835938 291.03125 352.464844 291.03125 C 352.097656 291.03125 351.730469 290.996094 351.367188 290.921875 C 351.003906 290.851562 350.652344 290.746094 350.3125 290.601562 C 349.972656 290.460938 349.648438 290.289062 349.339844 290.082031 C 349.035156 289.878906 348.75 289.644531 348.488281 289.382812 C 348.226562 289.121094 347.992188 288.839844 347.789062 288.53125 C 347.582031 288.222656 347.410156 287.898438 347.269531 287.558594 C 347.128906 287.21875 347.019531 286.867188 346.949219 286.503906 C 346.875 286.140625 346.839844 285.777344 346.839844 285.40625 Z M 346.839844 285.40625 " fill-opacity="1" fill-rule="nonzero"/><path fill="#fea62b" d="M 358.089844 13.753906 L 358.089844 38.734375 C 358.089844 39.105469 358.054688 39.46875 357.980469 39.832031 C 357.910156 40.195312 357.800781 40.546875 357.660156 40.886719 C 357.519531 41.230469 357.347656 41.554688 357.140625 41.859375 C 356.9375 42.167969 356.703125 42.453125 356.441406 42.714844 C 356.179688 42.972656 355.894531 43.207031 355.589844 43.414062 C 355.28125 43.617188 354.957031 43.789062 354.617188 43.933594 C 354.277344 44.074219 353.925781 44.179688 353.5625 44.253906 C 353.199219 44.324219 352.832031 44.359375 352.464844 44.359375 C 352.09375 44.359375 351.730469 44.324219 351.367188 44.253906 C 351.003906 44.179688 350.652344 44.074219 350.3125 43.933594 C 349.96875 43.789062 349.644531 43.617188 349.339844 43.414062 C 349.03125 43.207031 348.746094 42.972656 348.488281 42.714844 C 348.226562 42.453125 347.992188 42.167969 347.789062 41.859375 C 347.582031 41.554688 347.410156 41.230469 347.265625 40.886719 C 347.125 40.546875 347.019531 40.195312 346.949219 39.832031 C 346.875 39.46875 346.839844 39.105469 346.839844 38.734375 L 346.839844 13.753906 C 346.839844 13.382812 346.875 13.019531 346.949219 12.65625 C 347.019531 12.292969 347.125 11.941406 347.265625 11.601562 C 347.410156 11.257812 347.582031 10.9375 347.789062 10.628906 C 347.992188 10.320312 348.226562 10.039062 348.488281 9.777344 C 348.746094 9.515625 349.03125 9.28125 349.339844 9.078125 C 349.644531 8.871094 349.96875 8.699219 350.3125 8.558594 C 350.652344 8.414062 351.003906 8.308594 351.367188 8.238281 C 351.730469 8.164062 352.09375 8.128906 352.464844 8.128906 C 352.832031 8.128906 353.199219 8.164062 353.5625 8.238281 C 353.925781 8.308594 354.277344 8.414062 354.617188 8.558594 C 354.957031 8.699219 355.28125 8.871094 355.589844 9.078125 C 355.894531 9.28125 356.179688 9.515625 356.441406 9.777344 C 356.703125 10.039062 356.9375 10.320312 357.140625 10.628906 C 357.347656 10.9375 357.519531 11.257812 357.660156 11.601562 C 357.800781 11.941406 357.910156 12.292969 357.980469 12.65625 C 358.054688 13.019531 358.089844 13.382812 358.089844 13.753906 Z M 358.089844 13.753906 " fill-opacity="1" fill-rule="nonzero"/><path fill="#fea62b" d="M 352.328125 15.800781 L 324.179688 15.800781 C 323.808594 15.800781 323.445312 15.761719 323.082031 15.691406 C 322.71875 15.621094 322.367188 15.511719 322.027344 15.371094 C 321.683594 15.230469 321.359375 15.058594 321.054688 14.851562 C 320.746094 14.644531 320.460938 14.414062 320.199219 14.152344 C 319.941406 13.890625 319.707031 13.605469 319.5 13.300781 C 319.296875 12.992188 319.121094 12.667969 318.980469 12.328125 C 318.839844 11.984375 318.734375 11.632812 318.660156 11.273438 C 318.589844 10.910156 318.554688 10.542969 318.554688 10.175781 C 318.554688 9.804688 318.589844 9.4375 318.660156 9.078125 C 318.734375 8.714844 318.839844 8.363281 318.980469 8.023438 C 319.121094 7.679688 319.296875 7.355469 319.5 7.050781 C 319.707031 6.742188 319.941406 6.457031 320.199219 6.195312 C 320.460938 5.9375 320.746094 5.703125 321.054688 5.496094 C 321.359375 5.292969 321.683594 5.117188 322.027344 4.976562 C 322.367188 4.835938 322.71875 4.730469 323.082031 4.65625 C 323.445312 4.585938 323.808594 4.550781 324.179688 4.550781 L 352.328125 4.550781 C 352.699219 4.550781 353.066406 4.585938 353.425781 4.65625 C 353.789062 4.730469 354.140625 4.835938 354.480469 4.976562 C 354.824219 5.117188 355.148438 5.292969 355.453125 5.496094 C 355.761719 5.703125 356.046875 5.9375 356.308594 6.195312 C 356.566406 6.457031 356.800781 6.742188 357.007812 7.050781 C 357.210938 7.355469 357.386719 7.679688 357.527344 8.023438 C 357.667969 8.363281 357.773438 8.714844 357.847656 9.078125 C 357.917969 9.4375 357.953125 9.804688 357.953125 10.175781 C 357.953125 10.542969 357.917969 10.910156 357.847656 11.273438 C 357.773438 11.632812 357.667969 11.984375 357.527344 12.328125 C 357.386719 12.667969 357.210938 12.992188 357.007812 13.300781 C 356.800781 13.605469 356.566406 13.890625 356.308594 14.152344 C 356.046875 14.414062 355.761719 14.644531 355.453125 14.851562 C 355.148438 15.058594 354.824219 15.230469 354.480469 15.371094 C 354.140625 15.511719 353.789062 15.621094 353.425781 15.691406 C 353.066406 15.761719 352.699219 15.800781 352.328125 15.800781 Z M 352.328125 15.800781 " fill-opacity="1" fill-rule="nonzero"/><path fill="#489fb4" d="M 23.292969 13.753906 L 23.292969 70.003906 C 23.292969 70.371094 23.257812 70.738281 23.183594 71.101562 C 23.113281 71.460938 23.003906 71.8125 22.863281 72.15625 C 22.722656 72.496094 22.550781 72.820312 22.34375 73.128906 C 22.140625 73.433594 21.90625 73.71875 21.644531 73.980469 C 21.382812 74.242188 21.097656 74.472656 20.792969 74.679688 C 20.484375 74.882812 20.160156 75.058594 19.820312 75.199219 C 19.476562 75.339844 19.125 75.445312 18.765625 75.519531 C 18.402344 75.589844 18.035156 75.628906 17.667969 75.628906 C 17.296875 75.628906 16.933594 75.589844 16.570312 75.519531 C 16.207031 75.445312 15.855469 75.339844 15.515625 75.199219 C 15.171875 75.058594 14.847656 74.882812 14.542969 74.679688 C 14.234375 74.472656 13.949219 74.242188 13.691406 73.980469 C 13.429688 73.71875 13.195312 73.433594 12.988281 73.128906 C 12.785156 72.820312 12.613281 72.496094 12.46875 72.15625 C 12.328125 71.8125 12.222656 71.460938 12.148438 71.101562 C 12.078125 70.738281 12.042969 70.371094 12.042969 70.003906 L 12.042969 13.753906 C 12.042969 13.382812 12.078125 13.015625 12.148438 12.65625 C 12.222656 12.292969 12.328125 11.941406 12.46875 11.601562 C 12.613281 11.257812 12.785156 10.933594 12.988281 10.628906 C 13.195312 10.320312 13.429688 10.035156 13.691406 9.773438 C 13.949219 9.515625 14.234375 9.28125 14.542969 9.074219 C 14.847656 8.871094 15.171875 8.695312 15.515625 8.554688 C 15.855469 8.414062 16.207031 8.308594 16.570312 8.234375 C 16.933594 8.164062 17.296875 8.128906 17.667969 8.128906 C 18.035156 8.128906 18.402344 8.164062 18.765625 8.234375 C 19.125 8.308594 19.476562 8.414062 19.820312 8.554688 C 20.160156 8.695312 20.484375 8.871094 20.792969 9.074219 C 21.097656 9.28125 21.382812 9.515625 21.644531 9.773438 C 21.90625 10.035156 22.140625 10.320312 22.34375 10.628906 C 22.550781 10.933594 22.722656 11.257812 22.863281 11.601562 C 23.003906 11.941406 23.113281 12.292969 23.183594 12.65625 C 23.257812 13.015625 23.292969 13.382812 23.292969 13.753906 Z M 23.292969 92.503906 L 23.292969 99.46875 C 23.292969 99.839844 23.257812 100.207031 23.183594 100.566406 C 23.113281 100.929688 23.003906 101.28125 22.863281 101.621094 C 22.722656 101.964844 22.550781 102.289062 22.34375 102.59375 C 22.140625 102.902344 21.90625 103.1875 21.644531 103.449219 C 21.382812 103.707031 21.097656 103.941406 20.792969 104.148438 C 20.484375 104.351562 20.160156 104.527344 19.820312 104.667969 C 19.476562 104.808594 19.125 104.914062 18.765625 104.988281 C 18.402344 105.058594 18.035156 105.09375 17.667969 105.09375 C 17.296875 105.09375 16.933594 105.058594 16.570312 104.988281 C 16.207031 104.914062 15.855469 104.808594 15.515625 104.667969 C 15.171875 104.527344 14.847656 104.351562 14.542969 104.148438 C 14.234375 103.941406 13.949219 103.707031 13.691406 103.449219 C 13.429688 103.1875 13.195312 102.902344 12.988281 102.59375 C 12.785156 102.289062 12.613281 101.964844 12.46875 101.621094 C 12.328125 101.28125 12.222656 100.929688 12.148438 100.566406 C 12.078125 100.207031 12.042969 99.839844 12.042969 99.46875 L 12.042969 92.503906 C 12.042969 92.132812 12.078125 91.765625 12.148438 91.40625 C 12.222656 91.042969 12.328125 90.691406 12.46875 90.351562 C 12.613281 90.007812 12.785156 89.683594 12.988281 89.378906 C 13.195312 89.070312 13.429688 88.785156 13.691406 88.523438 C 13.949219 88.265625 14.234375 88.03125 14.542969 87.824219 C 14.847656 87.621094 15.171875 87.445312 15.515625 87.304688 C 15.855469 87.164062 16.207031 87.058594 16.570312 86.984375 C 16.933594 86.914062 17.296875 86.878906 17.667969 86.878906 C 18.035156 86.878906 18.402344 86.914062 18.765625 86.984375 C 19.125 87.058594 19.476562 87.164062 19.820312 87.304688 C 20.160156 87.445312 20.484375 87.621094 20.792969 87.824219 C 21.097656 88.03125 21.382812 88.265625 21.644531 88.523438 C 21.90625 88.785156 22.140625 89.070312 22.34375 89.378906 C 22.550781 89.683594 22.722656 90.007812 22.863281 90.351562 C 23.003906 90.691406 23.113281 91.042969 23.183594 91.40625 C 23.257812 91.765625 23.292969 92.132812 23.292969 92.503906 Z M 23.292969 92.503906 " fill-opacity="1" fill-rule="nonzero"/><path fill="#489fb4" d="M 17.527344 360.71875 L 17.527344 335.734375 C 17.527344 335.367188 17.566406 335 17.636719 334.636719 C 17.707031 334.277344 17.816406 333.925781 17.957031 333.582031 C 18.097656 333.242188 18.273438 332.917969 18.476562 332.609375 C 18.683594 332.304688 18.914062 332.019531 19.175781 331.757812 C 19.4375 331.496094 19.722656 331.265625 20.027344 331.058594 C 20.335938 330.855469 20.660156 330.679688 21 330.539062 C 21.34375 330.398438 21.695312 330.292969 22.054688 330.21875 C 22.417969 330.148438 22.785156 330.109375 23.152344 330.109375 C 23.523438 330.109375 23.890625 330.148438 24.25 330.21875 C 24.613281 330.292969 24.964844 330.398438 25.304688 330.539062 C 25.648438 330.679688 25.972656 330.855469 26.277344 331.058594 C 26.585938 331.265625 26.871094 331.496094 27.132812 331.757812 C 27.390625 332.019531 27.625 332.304688 27.832031 332.609375 C 28.035156 332.917969 28.210938 333.242188 28.351562 333.582031 C 28.492188 333.925781 28.597656 334.277344 28.671875 334.636719 C 28.742188 335 28.777344 335.367188 28.777344 335.734375 L 28.777344 360.71875 C 28.777344 361.085938 28.742188 361.453125 28.671875 361.816406 C 28.597656 362.175781 28.492188 362.527344 28.351562 362.871094 C 28.210938 363.210938 28.035156 363.535156 27.832031 363.84375 C 27.625 364.148438 27.390625 364.433594 27.132812 364.695312 C 26.871094 364.957031 26.585938 365.191406 26.277344 365.394531 C 25.972656 365.601562 25.648438 365.773438 25.304688 365.914062 C 24.964844 366.054688 24.613281 366.164062 24.25 366.234375 C 23.890625 366.308594 23.523438 366.34375 23.152344 366.34375 C 22.785156 366.34375 22.417969 366.308594 22.054688 366.234375 C 21.695312 366.164062 21.34375 366.054688 21 365.914062 C 20.660156 365.773438 20.335938 365.601562 20.027344 365.394531 C 19.722656 365.191406 19.4375 364.957031 19.175781 364.695312 C 18.914062 364.433594 18.683594 364.148438 18.476562 363.84375 C 18.273438 363.535156 18.097656 363.210938 17.957031 362.871094 C 17.816406 362.527344 17.707031 362.175781 17.636719 361.816406 C 17.566406 361.453125 17.527344 361.085938 17.527344 360.71875 Z M 17.527344 360.71875 " fill-opacity="1" fill-rule="nonzero"/><path fill="#489fb4" d="M 23.296875 358.671875 L 51.445312 358.671875 C 51.816406 358.671875 52.179688 358.707031 52.542969 358.78125 C 52.90625 358.851562 53.257812 358.957031 53.597656 359.101562 C 53.941406 359.242188 54.265625 359.414062 54.570312 359.621094 C 54.878906 359.824219 55.164062 360.058594 55.425781 360.320312 C 55.683594 360.582031 55.917969 360.863281 56.125 361.171875 C 56.328125 361.480469 56.5 361.804688 56.644531 362.144531 C 56.785156 362.484375 56.890625 362.835938 56.964844 363.199219 C 57.035156 363.5625 57.070312 363.925781 57.070312 364.296875 C 57.070312 364.667969 57.035156 365.03125 56.964844 365.394531 C 56.890625 365.757812 56.785156 366.109375 56.644531 366.449219 C 56.5 366.789062 56.328125 367.113281 56.125 367.421875 C 55.917969 367.730469 55.683594 368.011719 55.425781 368.273438 C 55.164062 368.535156 54.878906 368.769531 54.570312 368.972656 C 54.265625 369.179688 53.941406 369.351562 53.597656 369.492188 C 53.257812 369.636719 52.90625 369.742188 52.542969 369.8125 C 52.179688 369.886719 51.816406 369.921875 51.445312 369.921875 L 23.296875 369.921875 C 22.925781 369.921875 22.558594 369.886719 22.199219 369.8125 C 21.835938 369.742188 21.484375 369.636719 21.144531 369.492188 C 20.800781 369.351562 20.476562 369.179688 20.171875 368.972656 C 19.863281 368.769531 19.578125 368.535156 19.316406 368.273438 C 19.058594 368.011719 18.824219 367.730469 18.617188 367.421875 C 18.414062 367.113281 18.238281 366.789062 18.097656 366.449219 C 17.957031 366.109375 17.851562 365.757812 17.777344 365.394531 C 17.707031 365.03125 17.671875 364.667969 17.671875 364.296875 C 17.671875 363.925781 17.707031 363.5625 17.777344 363.199219 C 17.851562 362.835938 17.957031 362.484375 18.097656 362.144531 C 18.238281 361.804688 18.414062 361.480469 18.617188 361.171875 C 18.824219 360.863281 19.058594 360.582031 19.316406 360.320312 C 19.578125 360.058594 19.863281 359.824219 20.171875 359.621094 C 20.476562 359.414062 20.800781 359.242188 21.144531 359.101562 C 21.484375 358.957031 21.835938 358.851562 22.199219 358.78125 C 22.558594 358.707031 22.925781 358.671875 23.296875 358.671875 Z M 23.296875 358.671875 " fill-opacity="1" fill-rule="nonzero"/></svg>