<svg xmlns="http://www.w3.org/2000/svg" xmlns:xlink="http://www.w3.org/1999/xlink" width="500" zoomAndPan="magnify" viewBox="0 0 375 374.999991" height="500" preserveAspectRatio="xMidYMid meet" version="1.0"><defs><g/><clipPath id="a7a8df91bc"><path d="M 0.199219 0.0390625 L 222 0.0390625 L 222 338 L 0.199219 338 Z M 0.199219 0.0390625 " clip-rule="nonzero"/></clipPath><clipPath id="9538f2fad0"><rect x="0" width="222" y="0" height="338"/></clipPath><clipPath id="8a1ceb5886"><path d="M 197 1 L 368 1 L 368 352.121094 L 197 352.121094 Z M 197 1 " clip-rule="nonzero"/></clipPath><clipPath id="87daf7c5ad"><rect x="0" width="171" y="0" height="352"/></clipPath><clipPath id="2d027ef05b"><path d="M 29 288 L 167 288 L 167 352.121094 L 29 352.121094 Z M 29 288 " clip-rule="nonzero"/></clipPath><clipPath id="ea13f1be13"><rect x="0" width="138" y="0" height="65"/></clipPath><clipPath id="aee9407d99"><path d="M 172 288 L 347 288 L 347 352.121094 L 172 352.121094 Z M 172 288 " clip-rule="nonzero"/></clipPath><clipPath id="6484f0fd5b"><rect x="0" width="175" y="0" height="65"/></clipPath><clipPath id="42941cba4f"><rect x="0" width="368" y="0" height="353"/></clipPath></defs><g transform="matrix(1, 0, 0, 1, 7, 17)"><g clip-path="url(#42941cba4f)"><g clip-path="url(#a7a8df91bc)"><g><g clip-path="url(#9538f2fad0)"><g fill="#489fb4" fill-opacity="1"><g transform="translate(1.545711, 269.437225)"><g><path d="M 42.859375 -258.125 L 9.703125 -258.125 L 9.703125 -9.703125 L 49.890625 -9.703125 L 49.890625 -170.40625 C 49.890625 -170.851562 50 -171.410156 50.21875 -172.078125 C 50.664062 -172.753906 51.113281 -173.203125 51.5625 -173.421875 C 52.007812 -173.648438 52.34375 -173.875 52.5625 -174.09375 C 52.78125 -174.3125 53.003906 -174.421875 53.234375 -174.421875 L 55.234375 -174.421875 C 55.679688 -174.421875 56.242188 -174.203125 56.921875 -173.765625 C 57.585938 -173.535156 58.03125 -173.085938 58.25 -172.421875 L 58.921875 -172.078125 L 133.25 -30.125 L 138.609375 -21.765625 C 141.054688 -17.742188 143.953125 -14.726562 147.296875 -12.71875 C 150.648438 -10.707031 156.125 -9.703125 163.71875 -9.703125 L 180.453125 -9.703125 C 183.578125 -9.703125 185.140625 -8.03125 185.140625 -4.6875 C 185.140625 -1.5625 183.578125 0 180.453125 0 L 163.71875 0 C 155.675781 0 149.03125 -1.28125 143.78125 -3.84375 C 138.539062 -6.414062 134.023438 -10.710938 130.234375 -16.734375 L 124.875 -24.78125 L 124.875 -25.109375 L 59.59375 -150.328125 L 59.59375 -4.6875 C 59.59375 -1.5625 57.921875 0 54.578125 0 L 4.6875 0 C 3.34375 0 2.226562 -0.445312 1.34375 -1.34375 C 0.445312 -2.226562 0 -3.34375 0 -4.6875 L 0 -263.15625 C 0 -266.28125 1.5625 -267.84375 4.6875 -267.84375 L 42.859375 -267.84375 C 51.554688 -267.84375 58.191406 -266.054688 62.765625 -262.484375 C 67.347656 -258.910156 71.425781 -254.109375 75 -248.078125 L 175.765625 -65.625 L 175.765625 -258.125 L 133.921875 -258.125 L 133.921875 -201.875 C 133.921875 -198.757812 132.359375 -197.203125 129.234375 -197.203125 C 125.878906 -197.203125 124.203125 -198.757812 124.203125 -201.875 L 124.203125 -263.15625 C 124.203125 -266.28125 125.878906 -267.84375 129.234375 -267.84375 L 180.453125 -267.84375 C 183.578125 -267.84375 185.140625 -266.28125 185.140625 -263.15625 L 185.140625 -46.203125 C 185.140625 -45.753906 184.914062 -45.195312 184.46875 -44.53125 C 184.25 -43.863281 183.804688 -43.414062 183.140625 -43.1875 C 182.910156 -42.96875 182.679688 -42.742188 182.453125 -42.515625 C 182.234375 -42.296875 181.898438 -42.1875 181.453125 -42.1875 L 180.125 -42.1875 C 179.445312 -42.1875 178.773438 -42.410156 178.109375 -42.859375 C 177.210938 -43.304688 176.65625 -43.75 176.4375 -44.1875 L 176.109375 -44.859375 L 66.625 -243.390625 C 63.71875 -248.753906 60.644531 -252.550781 57.40625 -254.78125 C 54.175781 -257.007812 49.328125 -258.125 42.859375 -258.125 Z M 42.859375 -258.125 "/></g></g></g></g></g></g><g clip-path="url(#8a1ceb5886)"><g transform="matrix(1, 0, 0, 1, 197, 1)"><g clip-path="url(#87daf7c5ad)"><g fill="#fea62b" fill-opacity="1"><g transform="translate(4.232188, 280.231638)"><g><path d="M 78.640625 0 C 63.796875 0 51.675781 -2.492188 42.28125 -7.484375 C 32.882812 -12.472656 25.398438 -18.734375 19.828125 -26.265625 C 14.265625 -33.804688 10.03125 -41.632812 7.125 -49.75 C 4.226562 -57.875 1.96875 -65.070312 0.34375 -71.34375 L 0 -72.375 C -0.695312 -75.164062 0.34375 -77.140625 3.125 -78.296875 L 44.890625 -95 C 46.046875 -95.46875 47.4375 -95.351562 49.0625 -94.65625 C 50.457031 -94.1875 51.269531 -93.023438 51.5 -91.171875 C 53.125 -83.515625 55.269531 -76.613281 57.9375 -70.46875 C 60.601562 -64.320312 65.1875 -60.203125 71.6875 -58.109375 C 78.875 -56.023438 84.90625 -56.953125 89.78125 -60.890625 C 95.34375 -65.066406 98.125 -71.21875 98.125 -79.34375 C 98.125 -86.53125 96.382812 -91.921875 92.90625 -95.515625 C 89.425781 -99.117188 85.367188 -102.078125 80.734375 -104.390625 C 77.953125 -105.785156 77.253906 -107.988281 78.640625 -111 C 79.804688 -114.019531 82.007812 -114.832031 85.25 -113.4375 C 90.59375 -110.65625 95.753906 -106.769531 100.734375 -101.78125 C 105.722656 -96.789062 108.21875 -89.3125 108.21875 -79.34375 C 108.21875 -67.976562 104.046875 -59.160156 95.703125 -52.890625 C 88.273438 -47.085938 79.34375 -45.582031 68.90625 -48.375 C 60.320312 -50.925781 54.226562 -55.796875 50.625 -62.984375 C 47.03125 -70.171875 44.421875 -76.898438 42.796875 -83.171875 L 11.140625 -70.296875 C 12.765625 -64.492188 14.96875 -58.113281 17.75 -51.15625 C 20.53125 -44.195312 24.296875 -37.582031 29.046875 -31.3125 C 33.804688 -25.050781 40.1875 -19.945312 48.1875 -16 C 56.195312 -12.0625 66.347656 -10.09375 78.640625 -10.09375 C 93.023438 -10.09375 105.320312 -12.53125 115.53125 -17.40625 C 125.738281 -22.269531 133.914062 -30.269531 140.0625 -41.40625 C 146.207031 -52.539062 149.050781 -64.601562 148.59375 -77.59375 C 148.125 -89.425781 145.046875 -99.75 139.359375 -108.5625 C 133.679688 -117.382812 125.972656 -123.648438 116.234375 -127.359375 C 111.128906 -129.453125 105.789062 -131.25 100.21875 -132.75 C 94.65625 -134.257812 88.972656 -135.710938 83.171875 -137.109375 C 72.265625 -139.421875 61.59375 -142.257812 51.15625 -145.625 C 40.71875 -148.988281 31.671875 -154.320312 24.015625 -161.625 C 16.359375 -168.9375 11.253906 -179.554688 8.703125 -193.484375 C 6.148438 -207.171875 6.785156 -218.828125 10.609375 -228.453125 C 14.441406 -238.078125 18.5625 -245.675781 22.96875 -251.25 C 30.15625 -259.832031 38.96875 -266.5 49.40625 -271.25 C 59.851562 -276.007812 70.757812 -278.390625 82.125 -278.390625 C 100.21875 -278.390625 115.523438 -272.992188 128.046875 -262.203125 C 140.578125 -251.421875 149.628906 -235.9375 155.203125 -215.75 C 155.898438 -213.195312 154.972656 -211.222656 152.421875 -209.828125 L 113.4375 -191.390625 C 112.050781 -190.929688 110.660156 -190.929688 109.265625 -191.390625 C 107.867188 -192.085938 106.941406 -193.25 106.484375 -194.875 C 105.554688 -199.738281 103.929688 -204.664062 101.609375 -209.65625 C 99.285156 -214.644531 95.691406 -218.1875 90.828125 -220.28125 C 86.421875 -222.132812 82.128906 -222.128906 77.953125 -220.265625 C 73.773438 -218.410156 70.523438 -215.28125 68.203125 -210.875 C 65.648438 -205.539062 65.128906 -200.265625 66.640625 -195.046875 C 68.148438 -189.828125 71.457031 -185.359375 76.5625 -181.640625 C 79.34375 -179.554688 79.804688 -177.238281 77.953125 -174.6875 C 77.023438 -173.757812 75.863281 -173.175781 74.46875 -172.9375 C 73.070312 -172.707031 71.796875 -172.941406 70.640625 -173.640625 C 63.453125 -178.742188 58.8125 -185.125 56.71875 -192.78125 C 54.632812 -200.4375 55.445312 -207.859375 59.15625 -215.046875 C 62.40625 -222.015625 67.453125 -226.832031 74.296875 -229.5 C 81.140625 -232.164062 87.925781 -232.109375 94.65625 -229.328125 C 100.445312 -227.003906 104.851562 -223.40625 107.875 -218.53125 C 110.894531 -213.65625 113.210938 -208.550781 114.828125 -203.21875 L 144.40625 -217.140625 C 141.851562 -225.265625 138.140625 -233.269531 133.265625 -241.15625 C 128.398438 -249.039062 121.847656 -255.535156 113.609375 -260.640625 C 105.378906 -265.742188 94.882812 -268.296875 82.125 -268.296875 C 72.144531 -268.296875 62.628906 -266.265625 53.578125 -262.203125 C 44.535156 -258.140625 37 -252.398438 30.96875 -244.984375 C 27.03125 -240.335938 23.4375 -233.894531 20.1875 -225.65625 C 16.9375 -217.425781 16.472656 -207.394531 18.796875 -195.5625 C 20.878906 -183.726562 25.226562 -174.738281 31.84375 -168.59375 C 38.457031 -162.445312 46.457031 -157.863281 55.84375 -154.84375 C 65.238281 -151.832031 75.160156 -149.164062 85.609375 -146.84375 C 91.398438 -145.457031 97.253906 -144.007812 103.171875 -142.5 C 109.085938 -140.988281 114.832031 -139.191406 120.40625 -137.109375 C 131.769531 -132.460938 140.875 -124.921875 147.71875 -114.484375 C 154.5625 -104.046875 158.21875 -91.867188 158.6875 -77.953125 C 159.144531 -62.867188 155.835938 -48.890625 148.765625 -36.015625 C 141.691406 -23.140625 132.117188 -13.800781 120.046875 -8 C 112.859375 -4.519531 105.257812 -2.316406 97.25 -1.390625 C 89.25 -0.460938 83.046875 0 78.640625 0 Z M 78.640625 0 "/></g></g></g></g></g></g><g clip-path="url(#2d027ef05b)"><g transform="matrix(1, 0, 0, 1, 29, 288)"><g clip-path="url(#ea13f1be13)"><g fill="#fea62b" fill-opacity="1"><g transform="translate(2.409036, 45.784623)"><g><path d="M 6.625 0.203125 C 5.207031 0.0664062 3.554688 0 1.671875 0 L -0.265625 0 L 10.4375 -30 C 10.914062 -31.34375 11.15625 -32.125 11.15625 -32.34375 C 11.15625 -32.570312 11.144531 -32.710938 11.125 -32.765625 L 11.15625 -32.8125 C 12.21875 -32.757812 13.347656 -32.734375 14.546875 -32.734375 C 15.523438 -32.734375 16.707031 -32.75 18.09375 -32.78125 L 18.109375 -32.734375 C 18.078125 -32.671875 18.0625 -32.582031 18.0625 -32.46875 C 18.0625 -32.15625 18.304688 -31.328125 18.796875 -29.984375 L 29.734375 0.078125 C 29.398438 0.0546875 29.015625 0.046875 28.578125 0.046875 C 28.578125 0.046875 28.148438 0.03125 27.296875 0 C 26.890625 0 26.519531 0 26.1875 0 L 22.375 0 L 20.0625 -7.09375 L 8.9375 -7.09375 Z M 18.140625 -13 L 14.421875 -24.4375 L 10.8125 -13 Z M 18.140625 -13 "/></g></g></g><g fill="#fea62b" fill-opacity="1"><g transform="translate(31.870676, 45.784623)"><g><path d="M 14.8125 -12.71875 C 14.320312 -12.6875 13.796875 -12.671875 13.234375 -12.671875 C 12.679688 -12.671875 11.851562 -12.710938 10.75 -12.796875 L 10.75 0 L 4.234375 0 L 4.234375 -32.90625 C 6.523438 -33.195312 9.347656 -33.34375 12.703125 -33.34375 C 17.265625 -33.34375 20.664062 -32.5 22.90625 -30.8125 C 25.144531 -29.132812 26.265625 -26.539062 26.265625 -23.03125 C 26.265625 -20.3125 25.238281 -17.984375 23.1875 -16.046875 C 22.507812 -15.421875 21.738281 -14.878906 20.875 -14.421875 L 25.890625 -3.84375 C 26.878906 -1.65625 27.632812 -0.359375 28.15625 0.046875 L 28.03125 0.171875 C 26.4375 -0.0859375 23.9375 -0.078125 20.53125 0.203125 Z M 13.171875 -27.546875 C 12.328125 -27.546875 11.519531 -27.503906 10.75 -27.421875 L 10.75 -18.015625 C 11.5625 -17.898438 12.503906 -17.84375 13.578125 -17.84375 C 14.660156 -17.84375 15.570312 -17.9375 16.3125 -18.125 C 17.050781 -18.3125 17.691406 -18.601562 18.234375 -19 C 19.398438 -19.875 19.984375 -21.175781 19.984375 -22.90625 C 19.984375 -24.644531 19.375 -25.867188 18.15625 -26.578125 C 17.03125 -27.222656 15.367188 -27.546875 13.171875 -27.546875 Z M 13.171875 -27.546875 "/></g></g></g><g fill="#fea62b" fill-opacity="1"><g transform="translate(61.233863, 45.784623)"><g><path d="M 16.046875 0.140625 C 15.253906 0.046875 13.226562 0 9.96875 0 L 9.1875 0 L 9.1875 -27.21875 L 4.3125 -27.21875 C 2.863281 -27.21875 2.007812 -27.144531 1.75 -27 C 1.488281 -26.851562 1.28125 -26.722656 1.125 -26.609375 L 1.0625 -26.625 L 1.0625 -32.9375 L 1.125 -33 C 1.664062 -32.820312 3.128906 -32.734375 5.515625 -32.734375 L 20.9375 -32.734375 C 22.382812 -32.734375 23.238281 -32.804688 23.5 -32.953125 C 23.769531 -33.097656 23.976562 -33.226562 24.125 -33.34375 L 24.1875 -33.328125 L 24.1875 -27.03125 L 24.125 -26.953125 C 23.582031 -27.128906 22.117188 -27.21875 19.734375 -27.21875 L 16.046875 -27.21875 Z M 16.046875 0.140625 "/></g></g></g><g fill="#fea62b" fill-opacity="1"><g transform="translate(86.486688, 45.784623)"><g/></g></g><g fill="#fea62b" fill-opacity="1"><g transform="translate(103.198851, 45.784623)"><g><path d="M 8.640625 -12.3125 C 7.390625 -12.3125 6.375 -12.269531 5.59375 -12.1875 L 5.65625 -18.265625 C 6.019531 -18.160156 7.101562 -18.109375 8.90625 -18.109375 L 13.875 -18.109375 L 13.875 -22.84375 C 13.875 -24.644531 13.828125 -25.726562 13.734375 -26.09375 L 19.8125 -26.15625 C 19.726562 -25.375 19.6875 -24.359375 19.6875 -23.109375 L 19.6875 -18.109375 L 24.640625 -18.109375 C 26.421875 -18.109375 27.503906 -18.160156 27.890625 -18.265625 L 27.953125 -12.1875 C 27.171875 -12.269531 26.15625 -12.3125 24.90625 -12.3125 L 19.6875 -12.3125 L 19.6875 -6.84375 C 19.6875 -5.59375 19.726562 -4.578125 19.8125 -3.796875 L 13.734375 -3.859375 C 13.828125 -4.242188 13.875 -5.328125 13.875 -7.109375 L 13.875 -12.3125 Z M 8.640625 -12.3125 "/></g></g></g></g></g></g><g clip-path="url(#aee9407d99)"><g transform="matrix(1, 0, 0, 1, 172, 288)"><g clip-path="url(#6484f0fd5b)"><g fill="#489fb4" fill-opacity="1"><g transform="translate(2.181057, 45.784653)"><g><path d="M 12.203125 0.609375 C 9.546875 0.609375 7.046875 0.394531 4.703125 -0.03125 L 4.703125 -32.953125 C 6.867188 -33.210938 9.382812 -33.34375 12.25 -33.34375 C 15.113281 -33.34375 17.703125 -32.953125 20.015625 -32.171875 C 22.335938 -31.398438 24.28125 -30.289062 25.84375 -28.84375 C 28.988281 -25.957031 30.5625 -21.914062 30.5625 -16.71875 C 30.5625 -10.882812 28.804688 -6.460938 25.296875 -3.453125 C 22.148438 -0.742188 17.785156 0.609375 12.203125 0.609375 Z M 11.09375 -5.390625 C 12.164062 -5.191406 13.234375 -5.09375 14.296875 -5.09375 C 15.367188 -5.09375 16.519531 -5.300781 17.75 -5.71875 C 18.976562 -6.132812 20.039062 -6.785156 20.9375 -7.671875 C 22.875 -9.546875 23.84375 -12.269531 23.84375 -15.84375 C 23.84375 -21.71875 21.703125 -25.332031 17.421875 -26.6875 C 16.015625 -27.125 14.382812 -27.34375 12.53125 -27.34375 L 11.859375 -27.34375 C 11.617188 -27.34375 11.363281 -27.332031 11.09375 -27.3125 Z M 11.09375 -5.390625 "/></g></g></g><g fill="#489fb4" fill-opacity="1"><g transform="translate(35.753038, 45.784653)"><g><path d="M 20.703125 -5.90625 C 21.710938 -5.90625 22.414062 -6.003906 22.8125 -6.203125 L 22.921875 -6.171875 L 22.671875 0 L 4.234375 0 L 4.234375 -32.90625 C 4.671875 -32.875 5.160156 -32.847656 5.703125 -32.828125 L 7.4375 -32.78125 C 8.582031 -32.75 9.828125 -32.734375 11.171875 -32.734375 C 14.929688 -32.734375 18.648438 -32.800781 22.328125 -32.9375 C 22.140625 -31.488281 22.046875 -29.554688 22.046875 -27.140625 C 22.046875 -26.878906 22.066406 -26.6875 22.109375 -26.5625 L 22.046875 -26.484375 C 21.191406 -26.734375 19.976562 -26.859375 18.40625 -26.859375 L 10.65625 -26.859375 L 10.65625 -20.578125 L 16.484375 -20.578125 C 18.296875 -20.578125 19.378906 -20.625 19.734375 -20.71875 L 19.8125 -14.640625 C 19.019531 -14.722656 18.003906 -14.765625 16.765625 -14.765625 L 10.65625 -14.765625 L 10.65625 -5.90625 Z M 20.703125 -5.90625 "/></g></g></g><g fill="#489fb4" fill-opacity="1"><g transform="translate(61.005862, 45.784653)"><g><path d="M 24 -30.90625 L 23.53125 -23.671875 L 23.359375 -23.625 C 22.140625 -25.445312 20.070312 -26.628906 17.15625 -27.171875 C 16.238281 -27.347656 15.351562 -27.4375 14.5 -27.4375 C 13.65625 -27.4375 12.929688 -27.363281 12.328125 -27.21875 C 11.734375 -27.070312 11.226562 -26.859375 10.8125 -26.578125 C 9.90625 -25.992188 9.453125 -25.222656 9.453125 -24.265625 C 9.453125 -23.015625 9.84375 -22.082031 10.625 -21.46875 C 11.613281 -20.707031 13.25 -20.175781 15.53125 -19.875 C 17.8125 -19.570312 19.640625 -19.15625 21.015625 -18.625 C 22.398438 -18.101562 23.535156 -17.441406 24.421875 -16.640625 C 26.085938 -15.128906 26.921875 -12.992188 26.921875 -10.234375 C 26.921875 -6.628906 25.5625 -3.847656 22.84375 -1.890625 C 20.507812 -0.222656 17.570312 0.609375 14.03125 0.609375 C 11.175781 0.609375 8.351562 0.0664062 5.5625 -1.015625 C 4.644531 -1.367188 3.84375 -1.785156 3.15625 -2.265625 L 3.421875 -10.484375 L 3.515625 -10.5625 C 5.554688 -7.050781 8.894531 -5.296875 13.53125 -5.296875 C 16.832031 -5.296875 19.015625 -6.085938 20.078125 -7.671875 C 20.441406 -8.210938 20.625 -8.816406 20.625 -9.484375 C 20.625 -10.148438 20.515625 -10.703125 20.296875 -11.140625 C 20.085938 -11.578125 19.738281 -11.945312 19.25 -12.25 C 18.289062 -12.875 16.6875 -13.289062 14.4375 -13.5 C 12.195312 -13.71875 10.363281 -14.125 8.9375 -14.71875 C 7.507812 -15.3125 6.367188 -16.039062 5.515625 -16.90625 C 3.972656 -18.476562 3.203125 -20.675781 3.203125 -23.5 C 3.203125 -26.425781 4.226562 -28.789062 6.28125 -30.59375 C 8.363281 -32.425781 11.171875 -33.34375 14.703125 -33.34375 C 18.242188 -33.34375 21.34375 -32.53125 24 -30.90625 Z M 24 -30.90625 "/></g></g></g><g fill="#489fb4" fill-opacity="1"><g transform="translate(90.36905, 45.784653)"><g><path d="M 5 -32.828125 C 6.632812 -32.765625 7.625 -32.734375 7.96875 -32.734375 L 9.75 -32.734375 C 10.613281 -32.734375 11.3125 -32.800781 11.84375 -32.9375 L 11.8125 0 L 5 0 Z M 5 -32.828125 "/></g></g></g><g fill="#489fb4" fill-opacity="1"><g transform="translate(107.204266, 45.784653)"><g><path d="M 31.203125 -19.734375 C 30.890625 -19.179688 30.734375 -17.847656 30.734375 -15.734375 L 30.734375 -8.09375 C 30.734375 -5.78125 29.535156 -3.769531 27.140625 -2.0625 C 24.671875 -0.28125 21.640625 0.609375 18.046875 0.609375 C 13.054688 0.609375 9.078125 -0.953125 6.109375 -4.078125 C 3.234375 -7.066406 1.796875 -10.875 1.796875 -15.5 C 1.796875 -20.425781 3.253906 -24.53125 6.171875 -27.8125 C 9.441406 -31.5 13.941406 -33.34375 19.671875 -33.34375 C 23.492188 -33.34375 26.519531 -32.609375 28.75 -31.140625 L 28.359375 -23.875 L 28.15625 -23.828125 C 27.582031 -24.828125 26.453125 -25.644531 24.765625 -26.28125 C 23.148438 -26.894531 21.460938 -27.203125 19.703125 -27.203125 C 17.941406 -27.203125 16.398438 -26.921875 15.078125 -26.359375 C 13.753906 -25.796875 12.632812 -25 11.71875 -23.96875 C 9.78125 -21.851562 8.8125 -19.054688 8.8125 -15.578125 C 8.8125 -12.546875 9.664062 -10.109375 11.375 -8.265625 C 13.082031 -6.441406 15.28125 -5.53125 17.96875 -5.53125 C 20.9375 -5.53125 22.9375 -6.300781 23.96875 -7.84375 C 24.300781 -8.34375 24.46875 -8.90625 24.46875 -9.53125 L 24.46875 -13.609375 L 21.296875 -13.609375 C 19.585938 -13.609375 18.660156 -13.460938 18.515625 -13.171875 L 18.4375 -13.1875 L 18.21875 -19.609375 C 18.675781 -19.484375 20.535156 -19.421875 23.796875 -19.421875 L 26.703125 -19.421875 C 28.503906 -19.421875 29.984375 -19.539062 31.140625 -19.78125 Z M 31.203125 -19.734375 "/></g></g></g><g fill="#489fb4" fill-opacity="1"><g transform="translate(140.776247, 45.784653)"><g><path d="M 4.453125 0 C 4.554688 -0.5625 4.609375 -1.171875 4.609375 -1.828125 L 4.609375 -32.734375 L 9.53125 -32.734375 L 22.5625 -12.203125 L 22.5625 -31.0625 C 22.5625 -31.96875 22.484375 -32.523438 22.328125 -32.734375 L 28.96875 -32.734375 C 28.882812 -32.078125 28.84375 -31.351562 28.84375 -30.5625 L 28.84375 0 L 23.71875 0 L 10.875 -19.71875 L 10.875 0 Z M 4.453125 0 "/></g></g></g></g></g></g></g></g></svg>